<svg id="bg-black" xmlns="http://www.w3.org/2000/svg" viewBox="0 0 720 720"><defs><style>.cls-1{fill:#ececfe;}</style></defs><title>Artboard 3</title><path class="cls-1" d="M432.13,520.35V245H404.2a15.38,15.38,0,0,1-1.41,3.72,9.51,9.51,0,0,0,.15-3.72h-1.33c-.37,3-1.19,7.72-2.75,10.43l12.64,29L401.39,270l4.43,15.19s7,13.54,9.62,16.07l-11.26-9.11,11.26,27a94.11,94.11,0,0,1,5.7,33.16s-4.81-19.75-8.86-24c0,0,1.77,15.32-.89,26.83,0,0-.25-6.45-2.78-9.74,0,0-1.39,21.77-15.7,37.33,0,0,6.46-11.13,6.08-22.52,0,0-5.06,16.7-12.91,24.3,0,0,2.41-9.62,2.91-11.14s-5.95,13.92-9.74,17.21c0,0,3.16-10.25,2.65-12.91,0,0-3.79,17.72-13.79,28.23,0,0,4.68-11.14,5.31-18.1,0,0-3.29,10-11,16.83l.76-2.4s-4.17,6.58-9.24,9.23a43.89,43.89,0,0,0,4.51-8.41c-1.19.67-2.43,1.33-3.7,2-3.38,3.79-7.81,8.37-10.68,9.84,0,0,1.66-3.13,3-6.13l-.55.26c-1,.43-1.93.84-2.92,1.25a14.81,14.81,0,0,1-2.72,2l.58-1.12q-2.6,1-5.31,1.8a10.89,10.89,0,0,1-3.88,2l-3.54,2.41,1.21-2.72-1.67.39-3.09,3.59.78-3.12-.44.09-3.75,5.69-2.54,5.44-7.72,3.29a50.17,50.17,0,0,1-12.15,2.91c-5.57.38-6.92,0-6.92,0s-1.35.38-6.91,0a50.17,50.17,0,0,1-12.15-2.91l-7.72-3.29-2.54-5.44-4.43-6.71,1,4-6.2-7.21,2.65,5.95-3.54-2.41c-3.42-.5-11.52-8.48-11.52-8.48,1.27,2.66,2.91,5.82,2.91,5.82-2.78-1.39-7.59-6.83-7.59-6.83a95.75,95.75,0,0,0,4.43,9.49c-5.19-2.66-15.44-15.44-15.44-15.44,1,5.57,5.57,12,5.57,12-5.07-2.65-9.24-9.23-9.24-9.23l.76,2.4c-7.72-6.83-11-16.83-11-16.83.63,7,5.31,18.1,5.31,18.1-10-10.51-13.79-28.23-13.79-28.23-.51,2.66,2.65,12.91,2.65,12.91-3.79-3.29-10.25-18.73-9.74-17.21s2.91,11.14,2.91,11.14c-7.85-7.6-12.91-24.3-12.91-24.3-.38,11.39,6.07,22.52,6.07,22.52-14.3-15.56-15.69-37.33-15.69-37.33-2.53,3.29-2.78,9.74-2.78,9.74-2.66-11.51-.89-26.83-.89-26.83-4.05,4.3-8.86,24-8.86,24a94.11,94.11,0,0,1,5.7-33.16l11.26-27-11.26,9.11c2.65-2.53,9.62-16.07,9.62-16.07L183.54,270l-10.11,14.43,12.64-29c-2.41-4.18-3-13.17-3-13.17a8.66,8.66,0,0,0-.89,6.46c-2.65-4.56-2.91-15.69-2.91-15.69-2.59,3.3-1.23,7.47-1,8-3.76-9,0-21.32,0-21.32-2.15,1.89-4.05,6.45-4.05,6.45s-3.67-20.88,5.32-30,13.54-7.88,16.32-8.64,14.81.63,23.67,8.1,24.68,9.36,24.68,9.36l4.94-.57,5.82.57,8-1.13,3.83.54a88.74,88.74,0,0,1,29-4.83,104.28,104.28,0,0,1,34.39,5.41l5.71-.56,4.94.57s15.82-1.89,24.68-9.36a37.27,37.27,0,0,1,21.73-8.28l9.71-23.35q-16.62-10.62-43-19.86T293.42,135q-37,0-67.45,12.93a151.63,151.63,0,0,0-52.43,36.5Q151.6,208,139.82,240.3T128,311.45a182.29,182.29,0,0,0,11.54,65.13,163.48,163.48,0,0,0,33.5,54.05q21.93,23.56,53.58,37.19t71.84,14.55q26.33.45,48-5.54c6.69-1.85,12.87-3.84,18.6-5.95V585H592V520.35Z"/><path class="cls-1" d="M344.3,279.57a132.54,132.54,0,0,0-17.19,10c-3,2.31-14,17.71-14,17.71A39.07,39.07,0,0,0,323.76,311c6.28,1.25,15.82.62,21.27-1.47s8.28-3.56,13.84-8.7S363.06,288,363.06,288l-2.31-12.58S348.07,278,344.3,279.57Z"/><path class="cls-1" d="M257.82,289.53a133.21,133.21,0,0,0-17.19-10c-3.77-1.57-16.45-4.19-16.45-4.19L221.87,288s-1.36,7.75,4.19,12.89,8.39,6.6,13.84,8.7,15,2.72,21.27,1.47a39.07,39.07,0,0,0,10.69-3.78S260.86,291.84,257.82,289.53Z"/></svg>