<svg xmlns="http://www.w3.org/2000/svg" viewBox="0 0 720 720"><defs><style>.cls-1{fill:#000030;}</style></defs><title>Artboard 1</title><g id="bg-white"><path class="cls-1" d="M434.76,491.24V215.92H406.84a15.13,15.13,0,0,1-1.42,3.71,9.25,9.25,0,0,0,.15-3.71h-1.32c-.38,3-1.19,7.71-2.75,10.42l12.64,29L404,240.9l4.43,15.19s7,13.54,9.62,16.07l-11.26-9.11L418.08,290a94.44,94.44,0,0,1,5.7,33.16s-4.81-19.74-8.86-24c0,0,1.77,15.31-.89,26.83,0,0-.25-6.46-2.78-9.75,0,0-1.4,21.77-15.7,37.34,0,0,6.46-11.14,6.08-22.53,0,0-5.07,16.71-12.91,24.3,0,0,2.4-9.62,2.91-11.14s-5.95,13.93-9.75,17.22c0,0,3.17-10.25,2.66-12.91,0,0-3.8,17.72-13.8,28.22,0,0,4.69-11.14,5.32-18.1,0,0-3.29,10-11,16.84l.76-2.41s-4.18,6.58-9.24,9.24a44.91,44.91,0,0,0,4.51-8.41c-1.2.67-2.44,1.33-3.71,2-3.38,3.79-7.8,8.37-10.67,9.84,0,0,1.66-3.14,3-6.13l-.55.25c-1,.44-1.94.85-2.92,1.25a14.62,14.62,0,0,1-2.73,2l.58-1.12q-2.58,1-5.3,1.8a10.89,10.89,0,0,1-3.88,2l-3.55,2.4,1.22-2.71-1.67.38-3.09,3.6.78-3.13c-.15,0-.29.07-.44.09l-3.76,5.7-2.53,5.44-7.72,3.29A50.17,50.17,0,0,1,302,403.66c-5.57.38-6.92,0-6.92,0s-1.35.38-6.92,0A50.17,50.17,0,0,1,276,400.75l-7.72-3.29L265.78,392l-4.43-6.71,1,4.05-6.2-7.22,2.66,5.95-3.54-2.4c-3.42-.51-11.52-8.48-11.52-8.48,1.26,2.66,2.91,5.82,2.91,5.82-2.79-1.39-7.59-6.84-7.59-6.84a92.83,92.83,0,0,0,4.43,9.5c-5.19-2.66-15.45-15.44-15.45-15.44,1,5.57,5.57,12,5.57,12-5.06-2.66-9.24-9.24-9.24-9.24l.76,2.41c-7.72-6.84-11-16.84-11-16.84.63,7,5.32,18.1,5.32,18.1-10-10.5-13.8-28.22-13.8-28.22-.5,2.66,2.66,12.91,2.66,12.91-3.8-3.29-10.25-18.73-9.75-17.22s2.92,11.14,2.92,11.14c-7.85-7.59-12.91-24.3-12.91-24.3-.38,11.39,6.07,22.53,6.07,22.53C180.35,338,179,316.2,179,316.2c-2.53,3.29-2.79,9.75-2.79,9.75-2.66-11.52-.88-26.83-.88-26.83-4,4.3-8.86,24-8.86,24A94.31,94.31,0,0,1,172.12,290l11.27-26.95-11.27,9.11c2.66-2.53,9.62-16.07,9.62-16.07l4.43-15.19-10.11,14.43,12.64-29c-2.4-4.17-3-13.16-3-13.16a8.63,8.63,0,0,0-.89,6.45c-2.66-4.55-2.91-15.69-2.91-15.69-2.6,3.3-1.24,7.48-1,8-3.75-9,0-21.32,0-21.32-2.16,1.9-4.05,6.46-4.05,6.46s-3.67-20.89,5.31-30,13.54-7.89,16.33-8.65,14.81.64,23.67,8.1S246.8,176,246.8,176l4.93-.57,5.82.57,8-1.14,3.83.55a88.68,88.68,0,0,1,29-4.83,104.3,104.3,0,0,1,34.4,5.41l5.71-.56,4.94.57s15.82-1.9,24.68-9.37a37.23,37.23,0,0,1,21.73-8.27L399.53,135q-16.63-10.62-43-19.87t-60.52-9.24q-37,0-67.44,12.94a151.74,151.74,0,0,0-52.44,36.49q-21.94,23.56-33.72,55.9t-11.78,71.14a182.35,182.35,0,0,0,11.55,65.14,163.56,163.56,0,0,0,33.49,54q21.94,23.55,53.59,37.18t71.83,14.55q26.34.47,48.05-5.54,10-2.78,18.6-5.94V555.92H594.6V491.24Z"/><path class="cls-1" d="M346.93,250.47a130.8,130.8,0,0,0-17.18,10c-3,2.3-14.05,17.71-14.05,17.71a39.27,39.27,0,0,0,10.69,3.77c6.29,1.26,15.83.63,21.28-1.47s8.28-3.56,13.83-8.69,4.19-12.9,4.19-12.9l-2.3-12.57S350.71,248.9,346.93,250.47Z"/><path class="cls-1" d="M260.46,260.43a130.92,130.92,0,0,0-17.19-10c-3.77-1.57-16.46-4.19-16.46-4.19l-2.3,12.57s-1.36,7.76,4.19,12.9,8.38,6.6,13.83,8.69,15,2.73,21.28,1.47a39.27,39.27,0,0,0,10.69-3.77S263.5,262.73,260.46,260.43Z"/></g></svg>