<svg width="42" height="42" viewBox="0 0 42 42" fill="none" xmlns="http://www.w3.org/2000/svg">
<path d="M21.2004 0.199951C9.73159 0.199951 0.400391 9.53115 0.400391 20.9999C0.400391 32.4687 9.73159 41.7999 21.2004 41.7999C32.6692 41.7999 42.0004 32.4687 42.0004 20.9999C42.0004 9.53115 32.6692 0.199951 21.2004 0.199951ZM15.866 6.59995H26.5316C31.5316 6.59995 35.6004 10.6672 35.6004 15.6656V26.3312C35.6004 31.3312 31.5332 35.3999 26.5348 35.3999H15.8691C10.8691 35.3999 6.80039 31.3327 6.80039 26.3343V15.6687C6.80039 10.6687 10.8676 6.59995 15.866 6.59995ZM15.866 9.79995C12.6324 9.79995 10.0004 12.4335 10.0004 15.6687V26.3343C10.0004 29.5679 12.6339 32.1999 15.8691 32.1999H26.5348C29.7684 32.1999 32.4004 29.5664 32.4004 26.3312V15.6656C32.4004 12.432 29.7668 9.79995 26.5316 9.79995H15.866ZM28.6691 12.4656C29.2579 12.4656 29.7348 12.9424 29.7348 13.5312C29.7348 14.12 29.2579 14.6 28.6691 14.6C28.0803 14.6 27.6004 14.12 27.6004 13.5312C27.6004 12.9424 28.0803 12.4656 28.6691 12.4656ZM21.2004 13C25.6116 13 29.2004 16.5888 29.2004 20.9999C29.2004 25.4111 25.6116 28.9999 21.2004 28.9999C16.7892 28.9999 13.2004 25.4111 13.2004 20.9999C13.2004 16.5888 16.7892 13 21.2004 13ZM21.2004 16.2C19.9274 16.2 18.7065 16.7057 17.8063 17.6058C16.9061 18.506 16.4004 19.7269 16.4004 20.9999C16.4004 22.273 16.9061 23.4939 17.8063 24.3941C18.7065 25.2942 19.9274 25.7999 21.2004 25.7999C22.4734 25.7999 23.6943 25.2942 24.5945 24.3941C25.4947 23.4939 26.0004 22.273 26.0004 20.9999C26.0004 19.7269 25.4947 18.506 24.5945 17.6058C23.6943 16.7057 22.4734 16.2 21.2004 16.2V16.2Z" fill="white"/>
</svg>
