<svg width="33" height="33" viewBox="0 0 33 33" fill="none" xmlns="http://www.w3.org/2000/svg">
<path fill-rule="evenodd" clip-rule="evenodd" d="M16.2002 32.7999C25.0368 32.7999 32.2002 25.6365 32.2002 16.7999C32.2002 7.96337 25.0368 0.799927 16.2002 0.799927C7.36364 0.799927 0.200195 7.96337 0.200195 16.7999C0.200195 25.6365 7.36364 32.7999 16.2002 32.7999ZM9.45049 7.79993C8.2085 7.79993 7.2005 8.80793 7.2005 10.0499C7.2005 11.2919 8.2085 12.2999 9.45049 12.2999C10.6925 12.2999 11.7005 11.2919 11.7005 10.0499C11.7005 8.80793 10.6925 7.79993 9.45049 7.79993ZM13.5 19.0143C13.5 15.8043 16.12 13.2003 19.351 13.2003C22.581 13.2003 25.201 15.8043 25.201 19.0143V24.8993C25.201 25.3964 24.797 25.8003 24.3 25.8003H22.201C21.704 25.8003 21.3 25.3964 21.3 24.8993V19.1343C21.3 18.1154 20.567 17.1884 19.553 17.0873C18.385 16.9703 17.401 17.8783 17.401 19.0143V24.8993C17.401 25.3964 16.997 25.8003 16.5 25.8003H14.401C13.904 25.8003 13.5 25.3964 13.5 24.8993V19.0143ZM8.1012 14.0997H10.8002C11.2972 14.0997 11.7002 14.5028 11.7002 14.9997V24.8997C11.7002 25.3967 11.2972 25.7997 10.8002 25.7997H8.1012C7.6042 25.7997 7.2002 25.3967 7.2002 24.8997V14.9997C7.2002 14.5028 7.6042 14.0997 8.1012 14.0997Z" fill="white"/>
</svg>
